<?xml version="1.0" encoding="UTF-8"?>
<svg width="30px" height="43px" viewBox="0 0 30 43" version="1.1" xmlns="http://www.w3.org/2000/svg" xmlns:xlink="http://www.w3.org/1999/xlink">
    <!-- Generator: Sketch 54.1 (76490) - https://sketchapp.com -->
    <title>Combined Shape</title>
    <desc>Created with Sketch.</desc>
    <g id="Page-1" stroke="none" stroke-width="1" fill="none" fill-rule="evenodd">
        <g id="31" transform="translate(-999.000000, -182.000000)" fill="#F5A623">
            <path d="M1009,199.571068 L1007.93934,200.631728 C1005.98672,202.584349 1002.82089,202.584349 1000.86827,200.631728 C998.915651,198.679107 998.915651,195.513282 1000.86827,193.56066 L1010.06066,184.368272 C1011.13976,183.289173 1012.58938,182.806429 1014,182.920038 C1015.41062,182.806429 1016.86024,183.289173 1017.93934,184.368272 L1027.13173,193.56066 C1029.08435,195.513282 1029.08435,198.679107 1027.13173,200.631728 C1025.17911,202.584349 1022.01328,202.584349 1020.06066,200.631728 L1019,199.571068 L1019,220 C1019,222.761424 1016.76142,225 1014,225 C1011.23858,225 1009,222.761424 1009,220 L1009,199.571068 Z" id="Combined-Shape"></path>
        </g>
    </g>
</svg>