<?xml version="1.0" encoding="UTF-8"?>
<svg width="50px" height="90px" viewBox="0 0 50 90" version="1.1" xmlns="http://www.w3.org/2000/svg" xmlns:xlink="http://www.w3.org/1999/xlink">
    <!-- Generator: Sketch 54.1 (76490) - https://sketchapp.com -->
    <title>Group 3</title>
    <desc>Created with Sketch.</desc>
    <defs>
        <linearGradient x1="50%" y1="0%" x2="50%" y2="100%" id="linearGradient-1">
            <stop stop-color="#1E51EE" offset="0%"></stop>
            <stop stop-color="#19E6FF" offset="100%"></stop>
        </linearGradient>
    </defs>
    <g id="Page-1" stroke="none" stroke-width="1" fill="none" fill-rule="evenodd">
        <g id="31" transform="translate(-892.000000, -72.000000)">
            <g id="Group" transform="translate(775.000000, 61.000000)">
                <g id="Group-3" transform="translate(109.000000, 11.000000)">
                    <g id="Mail-Icon" transform="translate(8.000000, 0.000000)">
                        <path d="M31.2652,0 C36.084,0 38.4928,0 41.0868,0.82 C43.9188,1.8508 46.1492,4.0812 47.18,6.9132 C48,9.5068 48,11.9164 48,16.7348 L48,31.2652 C48,36.084 48,38.4928 47.18,41.0868 C46.1492,43.9188 43.9188,46.1492 41.0868,47.1796 C38.4928,48 36.084,48 31.2652,48 L16.7348,48 C11.916,48 9.5068,48 6.9132,47.1796 C4.0812,46.1492 1.8508,43.9188 0.82,41.0868 C0,38.4928 0,36.084 0,31.2652 L0,16.7348 C0,11.9164 0,9.5068 0.82,6.9132 C1.8508,4.0812 4.0812,1.8508 6.9132,0.82 C9.5068,0 11.916,0 16.7348,0 L31.2652,0 Z" id="Background" fill="url(#linearGradient-1)"></path>
                        <path d="M39.4072627,34.3729625 C39.3414096,34.3905982 39.2722593,34.4 39.2010007,34.4 L8.7989993,34.4 C8.72764051,34.4 8.6584666,34.3906328 8.59263698,34.3730627 L8.59263698,34.3730627 L18.0705606,24.9001687 L20.0830396,26.9618649 C22.244872,29.1765673 25.7549835,29.1767153 27.9169604,26.9618649 L29.9294394,24.9001687 L39.4072627,34.3729625 L39.4072627,34.3729625 L39.4072627,34.3729625 Z M40,33.3614201 L40,14.5708052 C40,14.4749437 39.9831028,14.3829965 39.952123,14.2977901 C39.9048778,14.4072212 30.488141,24.0885032 30.488141,24.0885032 L39.9728897,33.5682187 C39.9905676,33.502257 40,33.4329354 40,33.3614201 L40,33.3614201 Z M8,33.4412887 L8,14.6506738 C8,14.5548326 8.0169406,14.4629313 8.04796505,14.3777769 C8.09517167,14.4871465 17.511859,24.1683719 17.511859,24.1683719 L8.02705005,33.6481476 C8.00940637,33.5821563 8,33.512812 8,33.4412887 L8,33.4412887 Z M39.4459587,13.6151682 L27.3443349,26.0028437 C25.496308,27.896066 22.5035688,27.8959398 20.6556651,26.0028437 L8.5559778,13.6171505 C8.51944508,13.5797543 39.4459587,13.6151682 39.4459587,13.6151682 L39.4459587,13.6151682 Z" fill="#FFFFFF"></path>
                    </g>
                    <text id="Mail-for-Flights" font-family="SFProText-Medium, SF Pro Text" font-size="15" font-weight="400" letter-spacing="-0.4823529" fill="#FFFFFF">
                        <tspan x="7.31149168" y="68">Mail for </tspan>
                        <tspan x="9.78760038" y="86">Flights</tspan>
                    </text>
                </g>
            </g>
        </g>
    </g>
</svg>