<?xml version="1.0" encoding="UTF-8"?>
<svg width="30px" height="43px" viewBox="0 0 30 43" version="1.1" xmlns="http://www.w3.org/2000/svg" xmlns:xlink="http://www.w3.org/1999/xlink">
    <!-- Generator: Sketch 54.1 (76490) - https://sketchapp.com -->
    <title>Combined Shape</title>
    <desc>Created with Sketch.</desc>
    <g id="Page-1" stroke="none" stroke-width="1" fill="none" fill-rule="evenodd">
        <g id="31" transform="translate(-809.000000, -182.000000)" fill="#F5A623">
            <path d="M819,199.571068 L817.93934,200.631728 C815.986718,202.584349 812.820893,202.584349 810.868272,200.631728 C808.915651,198.679107 808.915651,195.513282 810.868272,193.56066 L820.06066,184.368272 C821.139759,183.289173 822.589384,182.806429 824,182.920038 C825.410616,182.806429 826.860241,183.289173 827.93934,184.368272 L837.131728,193.56066 C839.084349,195.513282 839.084349,198.679107 837.131728,200.631728 C835.179107,202.584349 832.013282,202.584349 830.06066,200.631728 L829,199.571068 L829,220 C829,222.761424 826.761424,225 824,225 C821.238576,225 819,222.761424 819,220 L819,199.571068 Z" id="Combined-Shape" transform="translate(824.000000, 203.951903) scale(1, -1) translate(-824.000000, -203.951903) "></path>
        </g>
    </g>
</svg>