<?xml version="1.0" encoding="UTF-8"?>
<svg width="62px" height="89px" viewBox="0 0 62 89" version="1.1" xmlns="http://www.w3.org/2000/svg" xmlns:xlink="http://www.w3.org/1999/xlink">
    <!-- Generator: Sketch 54.1 (76490) - https://sketchapp.com -->
    <title>Group 4</title>
    <desc>Created with Sketch.</desc>
    <g id="Page-1" stroke="none" stroke-width="1" fill="none" fill-rule="evenodd">
        <g id="31" transform="translate(-980.000000, -73.000000)">
            <g id="Group" transform="translate(775.000000, 61.000000)">
                <g id="Group-4" transform="translate(194.000000, 12.000000)">
                    <g id="Calendar-Icon" transform="translate(17.000000, 0.000000)">
                        <path d="M31.2652,0 C36.084,0 38.4928,0 41.0868,0.82 C43.9188,1.8508 46.1492,4.0812 47.18,6.9132 C48,9.5068 48,11.9164 48,16.7348 L48,31.2652 C48,36.084 48,38.4928 47.18,41.0868 C46.1492,43.9188 43.9188,46.1492 41.0868,47.1796 C38.4928,48 36.084,48 31.2652,48 L16.7348,48 C11.916,48 9.5068,48 6.9132,47.1796 C4.0812,46.1492 1.8508,43.9188 0.82,41.0868 C0,38.4928 0,36.084 0,31.2652 L0,16.7348 C0,11.9164 0,9.5068 0.82,6.9132 C1.8508,4.0812 4.0812,1.8508 6.9132,0.82 C9.5068,0 11.916,0 16.7348,0 L31.2652,0 Z" id="Background" fill="#FFFFFF"></path>
                        <g transform="translate(8.000000, 7.200000)">
                            <path d="M3.36,0.288 L5.256,5.296 L7.224,0.288 L8.024,0.288 L8.024,6 L7.48,6 L7.48,1.064 L7.464,1.064 L5.512,6 L5,6 L3.12,1.064 L3.104,1.064 L3.104,6 L2.56,6 L2.56,0.288 L3.36,0.288 Z M10.792,2.176 C11.0320012,2.176 11.2426658,2.22666616 11.424,2.328 C11.6053342,2.42933384 11.7559994,2.56266584 11.876,2.728 C11.9960006,2.89333416 12.0866664,3.08133228 12.148,3.292 C12.2093336,3.50266772 12.24,3.71733224 12.24,3.936 C12.24,4.15466776 12.2093336,4.36933228 12.148,4.58 C12.0866664,4.79066772 11.9960006,4.97866584 11.876,5.144 C11.7559994,5.30933416 11.6053342,5.44266616 11.424,5.544 C11.2426658,5.64533384 11.0320012,5.696 10.792,5.696 C10.5519988,5.696 10.3413342,5.64533384 10.16,5.544 C9.97866576,5.44266616 9.8280006,5.30933416 9.708,5.144 C9.5879994,4.97866584 9.49733364,4.79066772 9.436,4.58 C9.37466636,4.36933228 9.344,4.15466776 9.344,3.936 C9.344,3.71733224 9.37466636,3.50266772 9.436,3.292 C9.49733364,3.08133228 9.5879994,2.89333416 9.708,2.728 C9.8280006,2.56266584 9.97866576,2.42933384 10.16,2.328 C10.3413342,2.22666616 10.5519988,2.176 10.792,2.176 L10.792,2.176 Z M10.792,1.752 C10.4773318,1.752 10.1986679,1.81066608 9.956,1.928 C9.71333212,2.04533392 9.50933416,2.20266568 9.344,2.4 C9.17866584,2.59733432 9.05333376,2.82799868 8.968,3.092 C8.88266624,3.35600132 8.84,3.63733184 8.84,3.936 C8.84,4.23466816 8.88266624,4.51599868 8.968,4.78 C9.05333376,5.04400132 9.17866584,5.27466568 9.344,5.472 C9.50933416,5.66933432 9.71333212,5.82533276 9.956,5.94 C10.1986679,6.05466724 10.4773318,6.112 10.792,6.112 C11.1066682,6.112 11.3853321,6.05466724 11.628,5.94 C11.8706679,5.82533276 12.0746658,5.66933432 12.24,5.472 C12.4053342,5.27466568 12.5306662,5.04400132 12.616,4.78 C12.7013338,4.51599868 12.744,4.23466816 12.744,3.936 C12.744,3.63733184 12.7013338,3.35600132 12.616,3.092 C12.5306662,2.82799868 12.4053342,2.59733432 12.24,2.4 C12.0746658,2.20266568 11.8706679,2.04533392 11.628,1.928 C11.3853321,1.81066608 11.1066682,1.752 10.792,1.752 L10.792,1.752 Z M13.488,1.872 L13.488,6 L13.992,6 L13.992,3.592 C13.9973334,3.38933232 14.0306664,3.2013342 14.092,3.028 C14.1533336,2.8546658 14.2386661,2.70533396 14.348,2.58 C14.4573339,2.45466604 14.5906659,2.35600036 14.748,2.284 C14.9053341,2.21199964 15.0853323,2.176 15.288,2.176 C15.4906677,2.176 15.6599993,2.20799968 15.796,2.272 C15.9320007,2.33600032 16.0399996,2.42399944 16.12,2.536 C16.2000004,2.64800056 16.2559998,2.77999924 16.288,2.932 C16.3200002,3.08400076 16.336,3.24799912 16.336,3.424 L16.336,6 L16.84,6 L16.84,3.344 C16.84,3.09866544 16.8160002,2.87733432 16.768,2.68 C16.7199998,2.48266568 16.6373339,2.31600068 16.52,2.18 C16.4026661,2.04399932 16.2466676,1.93866704 16.052,1.864 C15.8573324,1.78933296 15.6160014,1.752 15.328,1.752 C15.0346652,1.752 14.7653346,1.82799924 14.52,1.98 C14.2746654,2.13200076 14.1040005,2.33333208 14.008,2.584 L13.992,2.584 L13.992,1.872 L13.488,1.872 Z M21.424,6 L21.424,0.288 L20.92,0.288 L20.92,2.656 L20.904,2.656 C20.8506664,2.50666592 20.7746672,2.37600056 20.676,2.264 C20.5773328,2.15199944 20.4640006,2.05733372 20.336,1.98 C20.2079994,1.90266628 20.0706674,1.84533352 19.924,1.808 C19.7773326,1.77066648 19.6266674,1.752 19.472,1.752 C19.1573318,1.752 18.8840012,1.81066608 18.652,1.928 C18.4199988,2.04533392 18.2266674,2.203999 18.072,2.404 C17.9173326,2.604001 17.802667,2.83599868 17.728,3.1 C17.653333,3.36400132 17.616,3.6426652 17.616,3.936 C17.616,4.2293348 17.653333,4.50799868 17.728,4.772 C17.802667,5.03600132 17.9173326,5.267999 18.072,5.468 C18.2266674,5.668001 18.4199988,5.82533276 18.652,5.94 C18.8840012,6.05466724 19.1573318,6.112 19.472,6.112 C19.6213341,6.112 19.7719992,6.09066688 19.924,6.048 C20.0760008,6.00533312 20.218666,5.94533372 20.352,5.868 C20.485334,5.79066628 20.6039995,5.69600056 20.708,5.584 C20.8120005,5.47199944 20.8906664,5.349334 20.944,5.216 L20.96,5.216 L20.96,6 L21.424,6 Z M18.12,3.936 C18.12,3.7226656 18.1453331,3.51066772 18.196,3.3 C18.2466669,3.08933228 18.3266661,2.90133416 18.436,2.736 C18.5453339,2.57066584 18.6853325,2.43600052 18.856,2.332 C19.0266675,2.22799948 19.2319988,2.176 19.472,2.176 C19.738668,2.176 19.9639991,2.22799948 20.148,2.332 C20.3320009,2.43600052 20.4813328,2.57066584 20.596,2.736 C20.7106672,2.90133416 20.7933331,3.08933228 20.844,3.3 C20.8946669,3.51066772 20.92,3.7226656 20.92,3.936 C20.92,4.1493344 20.8946669,4.36133228 20.844,4.572 C20.7933331,4.78266772 20.7106672,4.97066584 20.596,5.136 C20.4813328,5.30133416 20.3320009,5.43599948 20.148,5.54 C19.9639991,5.64400052 19.738668,5.696 19.472,5.696 C19.2319988,5.696 19.0266675,5.64400052 18.856,5.54 C18.6853325,5.43599948 18.5453339,5.30133416 18.436,5.136 C18.3266661,4.97066584 18.2466669,4.78266772 18.196,4.572 C18.1453331,4.36133228 18.12,4.1493344 18.12,3.936 L18.12,3.936 Z M22.336,3.136 L22.84,3.136 C22.8506667,2.79999832 22.9573323,2.55600076 23.16,2.404 C23.3626677,2.25199924 23.6239984,2.176 23.944,2.176 C24.0933341,2.176 24.2333327,2.18799988 24.364,2.212 C24.4946673,2.23600012 24.6093328,2.27999968 24.708,2.344 C24.8066672,2.40800032 24.8839997,2.49466612 24.94,2.604 C24.9960003,2.71333388 25.024,2.85333248 25.024,3.024 C25.024,3.13600056 25.0093335,3.22666632 24.98,3.296 C24.9506665,3.36533368 24.9093336,3.4199998 24.856,3.46 C24.8026664,3.5000002 24.7360004,3.52799992 24.656,3.544 C24.5759996,3.56000008 24.4826672,3.57333328 24.376,3.584 C24.1039986,3.61600016 23.8360013,3.64933316 23.572,3.684 C23.3079987,3.71866684 23.0706677,3.77866624 22.86,3.864 C22.6493323,3.94933376 22.4800006,4.07333252 22.352,4.236 C22.2239994,4.39866748 22.16,4.62399856 22.16,4.912 C22.16,5.12000104 22.1959996,5.29999924 22.268,5.452 C22.3400004,5.60400076 22.438666,5.72933284 22.564,5.828 C22.689334,5.92666716 22.8359992,5.99866644 23.004,6.044 C23.1720008,6.08933356 23.351999,6.112 23.544,6.112 C23.7466677,6.112 23.9213326,6.09333352 24.068,6.056 C24.2146674,6.01866648 24.3453328,5.96533368 24.46,5.896 C24.5746672,5.82666632 24.6786662,5.74000052 24.772,5.636 C24.8653338,5.53199948 24.9573329,5.413334 25.048,5.28 L25.064,5.28 C25.064,5.3866672 25.0706666,5.48399956 25.084,5.572 C25.0973334,5.66000044 25.1253331,5.73599968 25.168,5.8 C25.2106669,5.86400032 25.2706663,5.91333316 25.348,5.948 C25.4253337,5.98266684 25.5279994,6 25.656,6 C25.7253337,6 25.7826664,5.99733336 25.828,5.992 C25.8733336,5.98666664 25.925333,5.97866672 25.984,5.968 L25.984,5.544 C25.9359998,5.56533344 25.882667,5.576 25.824,5.576 C25.6266657,5.576 25.528,5.47466768 25.528,5.272 L25.528,3.08 C25.528,2.80266528 25.4826671,2.5773342 25.392,2.404 C25.3013329,2.2306658 25.1840007,2.09600048 25.04,2 C24.8959993,1.90399952 24.7333342,1.83866684 24.552,1.804 C24.3706658,1.76933316 24.1893342,1.752 24.008,1.752 C23.7679988,1.752 23.5493343,1.7786664 23.352,1.832 C23.1546657,1.8853336 22.9826674,1.96799944 22.836,2.08 C22.6893326,2.19200056 22.5733338,2.33599912 22.488,2.512 C22.4026662,2.68800088 22.3520001,2.8959988 22.336,3.136 L22.336,3.136 Z M25.024,3.744 L25.024,4.4 C25.024,4.60266768 24.9853337,4.7839992 24.908,4.944 C24.8306663,5.1040008 24.7266673,5.23999944 24.596,5.352 C24.4653327,5.46400056 24.3120009,5.54933304 24.136,5.608 C23.9599991,5.66666696 23.776001,5.696 23.584,5.696 C23.4666661,5.696 23.3520006,5.67733352 23.24,5.64 C23.1279994,5.60266648 23.0293338,5.54800036 22.944,5.476 C22.8586662,5.40399964 22.7906669,5.31866716 22.74,5.22 C22.6893331,5.12133284 22.664,5.00800064 22.664,4.88 C22.664,4.67733232 22.7239994,4.52133388 22.844,4.412 C22.9640006,4.30266612 23.1173324,4.21866696 23.304,4.16 C23.4906676,4.10133304 23.6973322,4.05733348 23.924,4.028 C24.1506678,3.99866652 24.3706656,3.96533352 24.584,3.928 C24.6533337,3.91733328 24.7333329,3.8986668 24.824,3.872 C24.9146671,3.8453332 24.9759998,3.80266696 25.008,3.744 L25.024,3.744 Z M26.072,1.872 L27.72,5.984 L27.544,6.448 C27.5013331,6.54400048 27.4613335,6.6319996 27.424,6.712 C27.3866665,6.7920004 27.3413336,6.85999972 27.288,6.916 C27.2346664,6.97200028 27.1720004,7.01599984 27.1,7.048 C27.0279996,7.08000016 26.9360006,7.096 26.824,7.096 C26.765333,7.096 26.7080003,7.09200004 26.652,7.084 C26.5959997,7.07599996 26.538667,7.06666672 26.48,7.056 L26.48,7.48 C26.5226669,7.49600008 26.5719997,7.50533332 26.628,7.508 C26.6840003,7.51066668 26.7626662,7.51466664 26.864,7.52 C27.0240008,7.52 27.1559995,7.50533348 27.26,7.476 C27.3640005,7.44666652 27.4546663,7.398667 27.532,7.332 C27.6093337,7.265333 27.6799997,7.17466724 27.744,7.06 C27.8080003,6.94533276 27.877333,6.80000088 27.952,6.624 L29.744,1.872 L29.24,1.872 L27.968,5.392 L26.608,1.872 L26.072,1.872 Z" id="Monday" fill="#FF0000"></path>
                            <path d="M5.936,11.872 L5.936,32.8 L6.576,32.8 L6.576,11.04 L5.872,11.04 C5.42399776,11.5520026 4.99200208,12.0106646 4.576,12.416 C4.15999792,12.8213354 3.72800224,13.1839984 3.28,13.504 C2.83199776,13.8240016 2.35200256,14.1119987 1.84,14.368 C1.32799744,14.6240013 0.74133664,14.8586656 0.08,15.072 L0.08,15.712 C1.16800544,15.4133318 2.23999472,14.9280034 3.296,14.256 C4.35200528,13.5839966 5.21066336,12.7893379 5.872,11.872 L5.936,11.872 Z M31.312,21.92 C31.312,20.5546598 31.178668,19.2000067 30.912,17.856 C30.645332,16.5119933 30.1920032,15.306672 29.552,14.24 C28.9119968,13.173328 28.0693386,12.3093366 27.024,11.648 C25.9786614,10.9866634 24.6666746,10.656 23.088,10.656 C21.5306589,10.656 20.2240053,10.9866634 19.168,11.648 C18.1119947,12.3093366 17.2640032,13.173328 16.624,14.24 C15.9839968,15.306672 15.530668,16.5119933 15.264,17.856 C14.997332,19.2000067 14.864,20.5546598 14.864,21.92 C14.864,23.2853402 14.997332,24.6399933 15.264,25.984 C15.530668,27.3280067 15.9839968,28.533328 16.624,29.6 C17.2640032,30.666672 18.1119947,31.5253301 19.168,32.176 C20.2240053,32.8266699 21.5306589,33.152 23.088,33.152 C24.6666746,33.152 25.9786614,32.8266699 27.024,32.176 C28.0693386,31.5253301 28.9119968,30.666672 29.552,29.6 C30.1920032,28.533328 30.645332,27.3280067 30.912,25.984 C31.178668,24.6399933 31.312,23.2853402 31.312,21.92 L31.312,21.92 Z M30.672,21.92 C30.672,23.1360061 30.5546678,24.373327 30.32,25.632 C30.0853322,26.890673 29.6800029,28.0319949 29.104,29.056 C28.5279971,30.0800051 27.7546715,30.9173301 26.784,31.568 C25.8133285,32.2186699 24.5813408,32.544 23.088,32.544 C21.5946592,32.544 20.3626715,32.2186699 19.392,31.568 C18.4213285,30.9173301 17.6480029,30.0800051 17.072,29.056 C16.4959971,28.0319949 16.0906678,26.890673 15.856,25.632 C15.6213322,24.373327 15.504,23.1360061 15.504,21.92 C15.504,20.7039939 15.6213322,19.466673 15.856,18.208 C16.0906678,16.949327 16.4959971,15.8080051 17.072,14.784 C17.6480029,13.7599949 18.4213285,12.9226699 19.392,12.272 C20.3626715,11.6213301 21.5946592,11.296 23.088,11.296 C24.5813408,11.296 25.8133285,11.6213301 26.784,12.272 C27.7546715,12.9226699 28.5279971,13.7599949 29.104,14.784 C29.6800029,15.8080051 30.0853322,16.949327 30.32,18.208 C30.5546678,19.466673 30.672,20.7039939 30.672,21.92 L30.672,21.92 Z" id="10" fill="#000000"></path>
                        </g>
                    </g>
                    <text id="For-Meetings" font-family="SFProText-Medium, SF Pro Text" font-size="15" font-weight="400" letter-spacing="-0.4823529" fill="#FFFFFF">
                        <tspan x="30.3509708" y="67">For </tspan>
                        <tspan x="10.0126636" y="85">Meetings</tspan>
                    </text>
                </g>
            </g>
        </g>
    </g>
</svg>