<?xml version="1.0" encoding="UTF-8"?>
<svg width="31px" height="57px" viewBox="0 0 31 57" version="1.1" xmlns="http://www.w3.org/2000/svg" xmlns:xlink="http://www.w3.org/1999/xlink">
    <!-- Generator: Sketch 54.1 (76490) - https://sketchapp.com -->
    <title>Group 2</title>
    <desc>Created with Sketch.</desc>
    <g id="Page-1" stroke="none" stroke-width="1" fill="none" fill-rule="evenodd">
        <g id="3" transform="translate(-309.000000, -59.000000)" stroke="#000000" stroke-width="2">
            <g id="Group-6" transform="translate(63.000000, 37.000000)">
                <g id="Group-2" transform="translate(247.000000, 22.000000)">
                    <path d="M13.6674244,16.9976441 L1.0843595,43.2992777 C0.456946158,44.6107225 0.860135853,46.1832918 2.04115181,47.0310751 L12.6128229,54.6198678 C13.7284173,55.4206887 15.230593,55.4204223 16.3459032,54.6192058 L26.9090722,47.0308372 C28.0891933,46.1830618 28.492093,44.6114168 27.8653773,43.3004491 L15.2912825,16.9978807 C15.0768997,16.5494334 14.5395697,16.3596867 14.0911225,16.5740695 C13.905661,16.6627304 13.7561394,16.8122085 13.6674244,16.9976441 Z" id="Combined-Shape" fill="#FF8B00"></path>
                    <path d="M13.6674244,1.6976441 L1.0843595,27.9992777 C0.456946158,29.3107225 0.860135853,30.8832918 2.04115181,31.7310751 L12.6128229,39.3198678 C13.7284173,40.1206887 15.230593,40.1204223 16.3459032,39.3192058 L26.9090722,31.7308372 C28.0891933,30.8830618 28.492093,29.3114168 27.8653773,28.0004491 L15.2912825,1.69788069 C15.0768997,1.24943342 14.5395697,1.05968669 14.0911225,1.27406949 C13.905661,1.36273042 13.7561394,1.51220847 13.6674244,1.6976441 Z" id="Combined-Shape" fill="#FF8B00"></path>
                    <path d="M23.5038859,34.1770547 L16.3459032,39.3192058 C15.230593,40.1204223 13.7284173,40.1206887 12.6128229,39.3198678 L5.44855702,34.1770547 L13.6674244,16.9976441 C13.7561394,16.8122085 13.905661,16.6627304 14.0911225,16.5740695 C14.5395697,16.3596867 15.0768997,16.5494334 15.2912825,16.9978807 L23.5038859,34.1770547 Z" id="Combined-Shape" fill="#FFFFFF"></path>
                </g>
            </g>
        </g>
    </g>
</svg>