<?xml version="1.0" encoding="UTF-8"?>
<svg width="224px" height="122px" viewBox="0 0 224 122" version="1.1" xmlns="http://www.w3.org/2000/svg" xmlns:xlink="http://www.w3.org/1999/xlink">
    <!-- Generator: Sketch 54.1 (76490) - https://sketchapp.com -->
    <title>Group 4</title>
    <desc>Created with Sketch.</desc>
    <defs>
        <polygon id="path-1" points="51.2040134 -50.5 172.795987 -50.5 172.795987 172.5 51.2040134 172.5"></polygon>
    </defs>
    <g id="Page-2" stroke="none" stroke-width="1" fill="none" fill-rule="evenodd">
        <g id="Artboard" transform="translate(-50.000000, -564.000000)">
            <g id="Group-4" transform="translate(50.000000, 564.000000)">
                <g id="IMG_7570">
                    <g id="Group-15">
                        <mask id="mask-2" fill="white">
                            <use xlink:href="#path-1"></use>
                        </mask>
                        <use id="Mask" fill="#000000" transform="translate(112.000000, 61.000000) rotate(90.000000) translate(-112.000000, -61.000000) " xlink:href="#path-1"></use>
                    </g>
                </g>
                <path d="M68,78.9998943 L68,76.7710023 L85.3026701,76.7710023 L85.3026701,78.9998943 L68,78.9998943 Z M68,74.3201196 L68,72.0912276 L85.3026701,72.0912276 L85.3026701,74.3201196 L68,74.3201196 Z M72.9432394,69.6403449 L72.9432394,67.4114529 L80.3588978,67.4114529 L80.3588978,69.6403449 L72.9432394,69.6403449 Z M72.9432394,64.9605702 L72.9432394,62.7316782 L80.3588978,62.7316782 L80.3588978,64.9605702 L72.9432394,64.9605702 Z M72.9432394,60.280267 L72.9432394,58.0519035 L80.3588978,58.0519035 L80.3588978,60.280267 L72.9432394,60.280267 Z M72.9432394,55.6010209 L72.9432394,53.3721288 L80.3588978,53.3721288 L80.3588978,55.6010209 L72.9432394,55.6010209 Z M68,50.9207176 L68,48.6918256 L85.3026701,48.6918256 L85.3026701,50.9207176 L68,50.9207176 Z M68,46.2409429 L68,44.0125795 L85.3026701,44.0125795 L85.3026701,46.2409429 L68,46.2409429 Z M87.7748228,72.0915976 L115.084954,72.0915976 C114.869637,72.8807215 114.551991,73.6280901 114.148537,74.319961 L87.7748228,74.319961 L87.7748228,72.0915976 Z M92.7183286,69.6403449 L92.7183286,67.4114529 L100.133987,67.4114529 L100.133987,69.6403449 L92.7183286,69.6403449 Z M112.252678,62.7315197 C112.965784,63.3768782 113.579225,64.1274181 114.065821,64.9604117 L92.7184885,64.9604117 L92.7184885,62.7315197 L112.252678,62.7315197 Z M92.7182753,58.0520092 L114.147151,58.0520092 C113.660022,58.8850028 113.046581,59.6350141 112.334008,60.2803727 L92.7182753,60.2803727 L92.7182753,58.0520092 Z M115.085061,50.9207176 L87.7749294,50.9207176 L87.7749294,48.6918256 L114.148644,48.6918256 C114.552097,49.3842251 114.869744,50.1315937 115.085061,50.9207176 Z M112.086127,46.2406787 L87.7749827,46.2406787 L87.7749827,44.0123152 L105.97623,44.0123152 C108.307414,44.0123152 110.439269,44.8521799 112.086127,46.2406787 Z M92.7183286,55.6004923 L92.7183286,53.3716003 L100.133987,53.3716003 L100.133987,55.6004923 L92.7183286,55.6004923 Z M107.099984,55.6007566 L107.099984,53.3718646 L115.414219,53.3718646 C115.414219,54.1403751 115.315621,54.8856295 115.13921,55.6007566 L107.099984,55.6007566 Z M107.099984,67.4115586 L115.13921,67.4115586 C115.315621,68.1266857 115.414219,68.8714115 115.414219,69.6404506 L107.099984,69.6404506 L107.099984,67.4115586 Z M131.368544,44 L132.148271,46.228892 L117.436337,46.228892 L117.436337,44 L131.368544,44 Z M117.436657,78.9998943 L117.436657,76.7704737 L129.799819,76.7704737 L129.799819,78.9998943 L117.436657,78.9998943 Z M117.436657,74.318534 L117.436657,72.0891134 L129.799819,72.0891134 L129.799819,74.318534 L117.436657,74.318534 Z M122.382028,69.6366451 L122.382028,67.4077531 L129.799819,67.4077531 L129.799819,69.6366451 L122.382028,69.6366451 Z M122.382028,64.9558133 L122.382028,62.7263927 L129.799819,62.7263927 L129.799819,64.9558133 L122.382028,64.9558133 Z M144.636465,78.9998943 L144.636465,76.7704737 L156.999627,76.7704737 L156.999627,78.9998943 L144.636465,78.9998943 Z M144.636465,74.318534 L144.636465,72.0891134 L156.999627,72.0891134 L156.999627,74.318534 L144.636465,74.318534 Z M144.636465,69.6366451 L144.636465,67.4077531 L152.054256,67.4077531 L152.054256,69.6366451 L144.636465,69.6366451 Z M144.636465,64.9558133 L144.636465,62.7263927 L152.054256,62.7263927 L152.054256,64.9558133 L144.636465,64.9558133 Z M144.636465,60.274083 L144.636465,58.1509008 L143.88019,60.274083 L137.369504,60.274083 L138.149763,58.0446624 L144.636465,58.0446624 L152.054256,58.0446624 L152.054256,60.274083 L144.636465,60.274083 Z M136.286521,58.0447681 L137.06678,60.2741887 L130.555561,60.2741887 L129.799819,58.1510065 L129.799819,60.2741887 L122.382028,60.2741887 L122.382028,58.0447681 L129.799819,58.0447681 L136.286521,58.0447681 Z M152.054202,53.3631964 L152.054202,55.5926169 L139.007781,55.5926169 L139.786974,53.3631964 L152.054202,53.3631964 Z M143.062517,44.0005285 L156.99952,44.0005285 L156.99952,46.2299491 L142.282791,46.2299491 L143.062517,44.0005285 Z M137.213452,78.9998943 L136.428396,76.7704737 L138.007568,76.7704737 L137.213452,78.9998943 Z M135.555775,74.3183225 L134.762192,72.088902 L139.674519,72.088902 L138.880403,74.3183225 L135.555775,74.3183225 Z M133.889197,69.6367508 L133.095614,67.4078588 L141.340564,67.4078588 L140.546981,69.6367508 L133.889197,69.6367508 Z M132.222672,64.9556547 L131.429089,62.7262342 L143.007195,62.7262342 L142.213612,64.9556547 L132.222672,64.9556547 Z M122.382082,55.5925112 L122.382082,53.3630907 L134.648777,53.3630907 L135.428503,55.5925112 L122.382082,55.5925112 Z M140.64494,50.9108866 L141.425199,48.681466 L157,48.681466 L157,50.9108866 L140.64494,50.9108866 Z M133.011192,48.6816246 L133.790918,50.9110452 L117.436391,50.9110452 L117.436391,48.6816246 L133.011192,48.6816246 Z M87.7748228,76.771108 L112.085967,76.771108 C110.439109,78.1601353 108.307254,79 105.97607,79 L87.7748228,79 L87.7748228,76.771108 Z" id="logo-color" fill="#FFFFFF"></path>
            </g>
        </g>
    </g>
</svg>