<?xml version="1.0" encoding="UTF-8"?>
<svg width="58px" height="66px" viewBox="0 0 58 66" version="1.1" xmlns="http://www.w3.org/2000/svg" xmlns:xlink="http://www.w3.org/1999/xlink">
    <!-- Generator: Sketch 56.3 (81716) - https://sketch.com -->
    <title>Group 3</title>
    <desc>Created with Sketch.</desc>
    <defs>
        <path d="M54.86475,17.50405 L50.43345,16.31715 L50.8338,14.81905 L57.8207,16.69165 L55.94805,23.678555 L54.4521,23.278195 L55.6389,18.845485 L47.9383,23.29154 L47.163415,21.95056 L54.86475,17.50405 Z M55.6382,47.92019 L54.4512,43.488505 L55.94935,43.0903 L57.8198,50.075035 L50.8351,51.94552 L50.43255,50.44956 L54.8632,49.261105 L47.163415,44.815495 L47.9383,43.474515 L55.6382,47.92019 Z M2.1812515,47.921505 L9.881945,43.475375 L10.65683,44.81636 L2.957915,49.26146 L7.387245,50.44956 L6.984735,51.94552 L0,50.075035 L1.870488,43.0903 L3.3686,43.488505 L2.1812515,47.921505 Z M2.9558595,17.503405 L10.65683,21.9497 L9.881945,23.29068 L2.1818025,18.84488 L3.3686,23.27755 L1.870488,23.67791 L0,16.691 L6.984735,14.82055 L7.387245,16.3165 L2.9558595,17.503405 Z M28.13696,2.9652 L24.89234,6.20985 L23.79674,5.1121 L28.910985,-2.84217094e-14 L34.023075,5.1121 L32.929625,6.20985 L29.68458,2.9648 L29.68458,11.8581 L28.13696,11.8581 L28.13696,2.9652 Z M32.91327,65.6696075 L31.363495,65.6696075 L31.363495,50.602385 C31.363495,50.277365 31.56798,49.98463 31.875785,49.8727 C33.70968,49.211895 35.668415,47.698715 35.668415,45.438635 L35.668415,36.7922 C35.668415,32.900555 32.700175,29.85267 28.909695,29.85267 C25.11921,29.85267 22.15097,32.909165 22.15097,36.811575 L22.15097,45.455855 C22.15097,47.70302 24.11186,49.211895 25.9436,49.8727 C26.251405,49.98463 26.45589,50.277365 26.45589,50.602385 L26.45589,65.6696075 L24.906115,65.6696075 L24.906115,51.12974 C22.237065,49.99324 20.601195,47.858 20.601195,45.455855 L20.601195,36.811575 C20.601195,32.03957 24.25177,28.3029 28.909695,28.3029 C33.56977,28.3029 37.21819,32.03096 37.21819,36.7922 L37.21819,45.438635 C37.21819,47.85154 35.58232,49.99324 32.91327,51.12974 L32.91327,65.6696075 Z M28.910125,16.93877 C26.9643,16.93877 25.38009,18.52083 25.38009,20.468805 C25.38009,22.41463 26.9643,23.996685 28.910125,23.996685 C30.855945,23.996685 32.44016,22.41463 32.44016,20.468805 C32.44016,18.52083 30.855945,16.93877 28.910125,16.93877 Z M28.910125,25.54861 C26.10977,25.54861 23.830315,23.269155 23.830315,20.468805 C23.830315,17.6663 26.10977,15.38685 28.910125,15.38685 C31.710475,15.38685 33.98993,17.6663 33.98993,20.468805 C33.98993,23.269155 31.710475,25.54861 28.910125,25.54861 Z" id="path-1"></path>
    </defs>
    <g id="Page-1" stroke="none" stroke-width="1" fill="none" fill-rule="evenodd">
        <g id="Artboard" transform="translate(-1202.000000, -640.000000)">
            <g id="Group-3" transform="translate(1202.000000, 640.000000)">
                <mask id="mask-2" fill="white">
                    <use xlink:href="#path-1"></use>
                </mask>
                <g id="Clip-2"></g>
                <polygon id="Fill-1" fill="#161616" mask="url(#mask-2)" points="-10.7623 -10.7623 68.583 -10.7623 68.583 76.43191 -10.7623 76.43191"></polygon>
            </g>
        </g>
    </g>
</svg>