<?xml version="1.0" encoding="UTF-8"?>
<svg width="65px" height="65px" viewBox="0 0 65 65" version="1.1" xmlns="http://www.w3.org/2000/svg" xmlns:xlink="http://www.w3.org/1999/xlink">
    <!-- Generator: Sketch 56.3 (81716) - https://sketch.com -->
    <title>Group 3</title>
    <desc>Created with Sketch.</desc>
    <defs>
        <path d="M0.911839,0 L64.08775,0 L64.08775,1.51625 L0.911839,1.51625 L0.911839,0 Z M60.89315,22.90087 C63.54235,25.52267 64.9996,28.875205 64.9996,32.343565 C64.9996,35.81192 63.54025,39.16656 60.89315,41.786255 C58.13445,44.515455 54.27865,45.894795 50.50915,45.894795 C46.998665,45.894795 43.564005,44.70077 41.14858,42.28745 L22.62961,23.768485 C18.255735,19.39461 10.04076,19.60309 5.39101,24.202295 C3.091408,26.478735 1.823678,29.37851 1.823678,32.37094 C1.823678,35.361265 3.091408,38.263145 5.39101,40.53748 C10.026015,45.12405 18.24099,45.311475 22.6254,40.92496 L26.236955,37.3134 L19.862505,37.3134 L19.862505,35.799285 L29.044075,35.799285 L29.044075,44.978745 L27.525745,44.978745 L27.525745,38.606405 L23.916295,42.213745 C21.456645,44.673395 17.96091,45.89269 14.406215,45.89269 C10.653565,45.89269 6.835635,44.532305 4.1064345,41.83469 C1.4593635,39.214995 0,35.85404 0,32.37094 C0,28.88784 1.4572575,25.526885 4.1064345,22.90508 C9.432165,17.638315 18.876965,17.43405 23.920505,22.47759 L42.43947,40.99656 C46.775445,45.330425 54.95885,45.092465 59.6107,40.49115 C61.9082,38.21471 63.1759,35.321255 63.1759,32.343565 C63.1759,29.36587 61.9082,26.472415 59.6107,24.195975 C54.96305,19.598875 46.735435,19.39882 42.357345,23.779015 L37.355915,28.78044 C37.17692,28.957335 36.94317,29.04578 36.711525,29.04578 C36.47777,29.04578 36.24402,28.957335 36.065025,28.78044 C35.70913,28.42455 35.70913,27.84544 36.065025,27.48955 L41.06645,22.48812 C46.118415,17.43826 55.56745,17.629895 60.89315,22.90087 Z M0.911839,9.9397 L0.911839,8.4235 L32.49769,8.4235 L32.49769,9.9397 L0.911839,9.9397 Z M0.911839,64.692158 L0.911839,63.175936 L64.08775,63.175936 L64.08775,64.692158 L0.911839,64.692158 Z M32.49769,56.268705 L32.49769,54.75248 L64.08565,54.75248 L64.08565,56.268705 L32.49769,56.268705 Z" id="path-1"></path>
    </defs>
    <g id="Page-1" stroke="none" stroke-width="1" fill="none" fill-rule="evenodd">
        <g id="Artboard" transform="translate(-340.000000, -635.000000)">
            <g id="Group-3" transform="translate(340.000000, 635.000000)">
                <mask id="mask-2" fill="white">
                    <use xlink:href="#path-1"></use>
                </mask>
                <g id="Clip-2"></g>
                <polygon id="Fill-1" fill="#161616" mask="url(#mask-2)" points="-10.52932 -10.5293 75.5289 -10.5293 75.5289 75.221475 -10.52932 75.221475"></polygon>
            </g>
        </g>
    </g>
</svg>