<?xml version="1.0" encoding="UTF-8"?>
<svg width="71px" height="72px" viewBox="0 0 71 72" version="1.1" xmlns="http://www.w3.org/2000/svg" xmlns:xlink="http://www.w3.org/1999/xlink">
    <!-- Generator: Sketch 56.3 (81716) - https://sketch.com -->
    <title>Group 3</title>
    <desc>Created with Sketch.</desc>
    <defs>
        <path d="M0,32.821665 L0,26.943025 C0,22.3215 2.6490465,18.12505 6.731185,16.05655 C4.552977,14.37205 3.2501675,11.78245 3.2501675,8.9871 C3.2501675,4.03185 7.27059,-2.84217094e-14 12.212125,-2.84217094e-14 C17.15366,-2.84217094e-14 21.1718,4.03185 21.1718,8.9871 C21.1718,11.43045 20.17755,13.71605 18.47247,15.37775 L29.713205,15.37775 L29.713205,0.82285 C29.713205,0.368 30.08119,-2.84217094e-14 30.53603,-2.84217094e-14 L69.39175,-2.84217094e-14 C69.8466,-2.84217094e-14 70.2146,0.368 70.2146,0.82285 L70.2146,32.821665 C70.2146,33.27879 69.8466,33.64678 69.39175,33.64678 L35.14615,33.64678 L35.14615,31.99884 L68.56895,31.99884 L68.56895,1.64795 L31.358855,1.64795 L31.358855,15.37775 L32.82166,15.37775 L37.48435,15.37775 C39.19857,15.37775 40.59052,16.77195 40.59052,18.4862 C40.59052,20.2004 39.19857,21.59465 37.48435,21.59465 L22.216335,21.59465 L22.216335,32.821665 L20.57068,32.821665 L20.57068,20.7718 C20.57068,20.317 20.938665,19.949 21.393505,19.949 L37.48435,19.949 C38.291175,19.949 38.94715,19.29075 38.94715,18.4862 C38.94715,17.67935 38.291175,17.0234 37.48435,17.0234 L32.82166,17.0234 L30.627455,17.0234 L15.94456,17.0234 C15.567435,17.0234 15.236015,16.7651 15.146875,16.3971 C15.05545,16.02915 15.22916,15.64745 15.565145,15.47145 C18.008485,14.19375 19.52843,11.7093 19.52843,8.9871 C19.52843,4.93925 16.246265,1.64795 12.212125,1.64795 C8.17799,1.64795 4.8958215,4.93925 4.8958215,8.9871 C4.8958215,11.7116 6.415765,14.19605 8.86139,15.47375 C9.151665,15.6246 9.32309,15.9354 9.300235,16.26 C9.277375,16.5891 9.062525,16.87025 8.753965,16.97995 C4.502693,18.47705 1.6456545,22.48375 1.6456545,26.943025 L1.6456545,32.821665 L0,32.821665 Z M51.9403,16.82315 C51.9403,18.43455 52.56655,19.9499 53.70705,21.08815 C54.2785,21.65955 54.9596,22.08925 55.691,22.37495 L57.0784,17.2003 L52.402,14.50095 C52.10025,15.2278 51.9403,16.01405 51.9403,16.82315 Z M61.61305,12.05075 C59.2863,10.31595 55.79615,10.4691 53.70705,12.55815 C53.5402,12.72505 53.40765,12.91475 53.26365,13.0976 L57.89205,15.77175 L61.61305,12.05075 Z M62.2416,21.08815 C63.37985,19.9499 64.0084,18.43455 64.0084,16.82315 C64.0084,15.4998 63.5627,14.25185 62.78105,13.21185 L58.7743,17.2186 L57.2955,22.7384 C59.0783,22.9281 60.9365,22.39555 62.2416,21.08815 Z M63.405,22.2538 C61.95365,23.705195 60.02685,24.502885 57.97435,24.502885 C55.92415,24.502885 53.99505,23.705195 52.5437,22.2538 C51.0923,20.80245 50.2946,18.87335 50.2946,16.82315 C50.2946,14.77295 51.0923,12.8439 52.5437,11.3925 C55.44645,8.48975 60.50455,8.48975 63.405,11.3925 C64.8541,12.8439 65.65405,14.77295 65.65405,16.82315 C65.65405,18.87335 64.8541,20.80245 63.405,22.2538 Z M35.105235,6.2201 L35.105235,4.5722 L46.551675,4.5722 L46.551675,6.2201 L35.105235,6.2201 Z M35.105235,10.7891 L35.105235,9.14115 L44.266045,9.14115 L44.266045,10.7891 L35.105235,10.7891 Z M63.45895,54.908865 C67.5548,56.97736 70.21525,61.176065 70.21525,65.799895 L70.21525,71.678539 L68.5696,71.678539 L68.5696,65.799895 C68.5696,61.338345 65.70115,57.33392 61.4339,55.83226 C61.1253,55.72255 60.9082,55.441415 60.8876,55.11457 C60.86245,54.787725 61.0362,54.479165 61.32645,54.326025 C63.77895,53.050645 65.30345,50.566165 65.30345,47.84169 C65.30345,43.796125 62.00985,40.50253 57.962,40.50253 C53.91415,40.50253 50.62055,43.796125 50.62055,47.84169 C50.62055,50.566165 52.14505,53.05293 54.59755,54.328315 C54.88785,54.48145 55.06155,54.79001 55.0387,55.116855 C55.0158,55.4437 54.80095,55.724835 54.4924,55.834545 C50.22515,57.336205 47.361245,61.338345 47.361245,65.799895 L47.361245,71.678539 L47.356675,71.678539 L45.71559,71.678539 L45.71102,71.678539 L45.71102,65.799895 C45.71102,61.338345 42.842555,57.33392 38.57528,55.83226 C38.26672,55.72255 38.05187,55.441415 38.029015,55.11457 C38.00616,54.787725 38.17758,54.479165 38.467855,54.326025 C40.920335,53.050645 42.444855,50.566165 42.444855,47.84169 C42.444855,43.796125 39.15126,40.50253 35.103405,40.50253 C31.055555,40.50253 27.76196,43.796125 27.76196,47.84169 C27.76196,50.566165 29.286475,53.05293 31.741245,54.328315 C32.03152,54.48145 32.205225,54.79001 32.180085,55.116855 C32.159515,55.4437 31.94238,55.724835 31.63382,55.834545 C27.36883,57.336205 24.50265,61.338345 24.50265,65.799895 L24.50265,71.678539 L24.500365,71.678539 L22.856995,71.678539 L22.85471,71.678539 L22.85471,65.799895 C22.85471,61.338345 19.986245,57.33392 15.71897,55.83226 C15.408125,55.72255 15.193275,55.441415 15.17042,55.11457 C15.14756,54.787725 15.318985,54.479165 15.611545,54.326025 C18.064025,53.050645 19.58626,50.566165 19.58626,47.84169 C19.58626,43.796125 16.292665,40.50253 12.247095,40.50253 C8.199245,40.50253 4.90565,43.796125 4.90565,47.84169 C4.90565,50.566165 6.430165,53.05293 8.88265,54.328315 C9.17521,54.48145 9.34663,54.79001 9.323775,55.116855 C9.30092,55.4437 9.08607,55.724835 8.77751,55.834545 C4.5102355,57.336205 1.64634,61.338345 1.64634,65.799895 L1.64634,71.678539 L0.0006856895,71.678539 L0.0006856895,65.799895 C0.0006856895,61.176065 2.656589,56.979645 6.750155,54.913435 C4.565091,53.228925 3.2599955,50.639305 3.2599955,47.84169 C3.2599955,42.886445 7.29185,38.856875 12.247095,38.856875 C17.202345,38.856875 21.23191,42.886445 21.23191,47.84169 C21.23191,50.63702 19.926815,53.22664 17.74404,54.908865 C20.514225,56.30767 22.601005,58.689295 23.677535,61.509765 C24.75407,58.69158 26.84085,56.309955 29.60875,54.913435 C27.423685,53.228925 26.11859,50.639305 26.11859,47.84169 C26.11859,42.886445 30.14816,38.856875 35.103405,38.856875 C40.058655,38.856875 44.08822,42.886445 44.08822,47.84169 C44.08822,50.63702 42.78541,53.224355 40.602635,54.908865 C43.370535,56.30767 45.4596,58.689295 46.536135,61.509765 C47.612665,58.69158 49.69716,56.309955 52.46505,54.913435 C50.28,53.228925 48.9749,50.639305 48.9749,47.84169 C48.9749,42.886445 53.00675,38.856875 57.962,38.856875 C62.91725,38.856875 66.9468,42.886445 66.9468,47.84169 C66.9468,50.63702 65.644,53.224355 63.45895,54.908865 Z" id="path-1"></path>
    </defs>
    <g id="Page-1" stroke="none" stroke-width="1" fill="none" fill-rule="evenodd">
        <g id="Artboard" transform="translate(-55.000000, -636.000000)">
            <g id="Group-3" transform="translate(55.000000, 636.000000)">
                <mask id="mask-2" fill="white">
                    <use xlink:href="#path-1"></use>
                </mask>
                <g id="Clip-2"></g>
                <polygon id="Fill-1" fill="#FFFFFF" mask="url(#mask-2)" points="-1.428155 -11.42815 91.6434 -11.42815 91.6434 83.106695 -1.428155 83.106695"></polygon>
            </g>
        </g>
    </g>
</svg>