<?xml version="1.0" encoding="UTF-8"?>
<svg width="67px" height="67px" viewBox="0 0 67 67" version="1.1" xmlns="http://www.w3.org/2000/svg" xmlns:xlink="http://www.w3.org/1999/xlink">
    <!-- Generator: Sketch 56.3 (81716) - https://sketch.com -->
    <title>Group 3</title>
    <desc>Created with Sketch.</desc>
    <defs>
        <path d="M51.8845,-2.84217094e-14 L51.8845,4.44215 L50.28535,4.44215 L50.28535,-2.84217094e-14 L51.8845,-2.84217094e-14 Z M43.00018,-2.84217094e-14 L43.00018,4.44215 L41.401,4.44215 L41.401,-2.84217094e-14 L43.00018,-2.84217094e-14 Z M34.115845,-2.84217094e-14 L34.115845,4.44215 L32.516665,4.44215 L32.516665,-2.84217094e-14 L34.115845,-2.84217094e-14 Z M16.347175,-2.84217094e-14 L16.347175,4.44215 L14.747995,4.44215 L14.747995,-2.84217094e-14 L16.347175,-2.84217094e-14 Z M25.23151,-2.84217094e-14 L25.23151,4.44215 L23.63233,4.44215 L23.63233,-2.84217094e-14 L25.23151,-2.84217094e-14 L25.23151,-2.84217094e-14 Z M50.28535,66.6325 L50.28535,62.190333 L51.8845,62.190333 L51.8845,66.6325 L50.28535,66.6325 Z M41.401,66.6325 L41.401,62.190333 L43.00018,62.190333 L43.00018,66.6325 L41.401,66.6325 Z M32.516665,66.6325 L32.516665,62.190333 L34.115845,62.190333 L34.115845,66.6325 L32.516665,66.6325 Z M14.747995,66.6325 L14.747995,62.190333 L16.347175,62.190333 L16.347175,66.6325 L14.747995,66.6325 Z M23.63233,66.6325 L23.63233,62.190333 L25.23151,62.190333 L25.23151,66.6325 L23.63233,66.6325 Z M0,14.74575 L4.442167,14.74575 L4.442167,16.34715 L0,16.34715 L0,14.74575 Z M0,23.6301 L4.442167,23.6301 L4.442167,25.2315 L0,25.2315 L0,23.6301 Z M0,32.514435 L4.442167,32.514435 L4.442167,34.115835 L0,34.115835 L0,32.514435 Z M0,50.283105 L4.442167,50.283105 L4.442167,51.884505 L0,51.884505 L0,50.283105 Z M0,41.39877 L4.442167,41.39877 L4.442167,43.00017 L0,43.00017 L0,41.39877 Z M66.6325,16.34715 L62.19035,16.34715 L62.19035,14.74575 L66.6325,14.74575 L66.6325,16.34715 Z M66.6325,25.2315 L62.19035,25.2315 L62.19035,23.6301 L66.6325,23.6301 L66.6325,25.2315 Z M66.6325,34.115835 L62.19035,34.115835 L62.19035,32.514435 L66.6325,32.514435 L66.6325,34.115835 Z M66.6325,51.884505 L62.19035,51.884505 L62.19035,50.283105 L66.6325,50.283105 L66.6325,51.884505 Z M66.6325,43.00017 L62.19035,43.00017 L62.19035,41.39877 L66.6325,41.39877 L66.6325,43.00017 Z M9.683925,56.948575 L56.9486,56.948575 L56.9486,9.68615 L9.683925,9.68615 L9.683925,56.948575 Z M57.74815,8.08475 C58.19015,8.08475 58.54775,8.44235 58.54775,8.88435 L58.54775,57.748165 C58.54775,58.19016 58.19015,58.547755 57.74815,58.547755 L8.884335,58.547755 C8.44234,58.547755 8.084745,58.19016 8.084745,57.748165 L8.084745,8.88435 C8.084745,8.44235 8.44234,8.08475 8.884335,8.08475 L57.74815,8.08475 Z M23.04374,43.65539 L43.6554,43.65539 L43.6554,23.045955 L23.04374,23.045955 L23.04374,43.65539 Z M22.246375,45.25679 C21.804375,45.25679 21.446785,44.899195 21.446785,44.4572 L21.446785,22.246365 C21.446785,21.80215 21.804375,21.444555 22.246375,21.444555 L44.45721,21.444555 C44.896985,21.444555 45.25458,21.80215 45.25458,22.246365 L45.25458,44.4572 C45.25458,44.899195 44.896985,45.25679 44.45721,45.25679 L22.246375,45.25679 Z" id="path-1"></path>
    </defs>
    <g id="Page-1" stroke="none" stroke-width="1" fill="none" fill-rule="evenodd">
        <g id="Artboard" transform="translate(-914.000000, -641.000000)">
            <g id="Group-3" transform="translate(914.000000, 641.000000)">
                <mask id="mask-2" fill="white">
                    <use xlink:href="#path-1"></use>
                </mask>
                <g id="Clip-2"></g>
                <polygon id="Fill-1" fill="#FFFFFF" mask="url(#mask-2)" points="-3.701806 -3.7018 70.3343 -3.7018 70.3343 70.334306 -3.701806 70.334306"></polygon>
            </g>
        </g>
    </g>
</svg>