<?xml version="1.0" encoding="UTF-8"?>
<svg width="31px" height="31px" viewBox="0 0 31 31" version="1.1" xmlns="http://www.w3.org/2000/svg" xmlns:xlink="http://www.w3.org/1999/xlink">
    <!-- Generator: Sketch 56.3 (81716) - https://sketch.com -->
    <title>Fill 1</title>
    <desc>Created with Sketch.</desc>
    <g id="Page-1" stroke="none" stroke-width="1" fill="none" fill-rule="evenodd">
        <path d="M10.4439,8.9469 C11.1069,8.7649 11.8189,8.9379 12.2929,9.4129 C12.7669,9.8859 12.9419,10.5959 12.7579,11.2609 C12.0939,11.4429 11.3829,11.2699 10.9089,10.7959 C10.4359,10.3219 10.2609,9.6119 10.4439,8.9469 M12.2339,12.0519 C11.5509,12.0519 10.8869,11.7929 10.3999,11.3039 C9.6899,10.5949 9.4619,9.5089 9.8199,8.5369 L9.8779,8.3809 L10.0329,8.3229 C11.0059,7.9659 12.0919,8.1939 12.8019,8.9029 C13.5129,9.6139 13.7399,10.6999 13.3819,11.6719 L13.3249,11.8279 L13.1689,11.8849 C12.8629,11.9979 12.5469,12.0519 12.2339,12.0519 Z M7.7291,3.108 C4.1701,5.16 2.7181,7.29 2.7181,10.461 C2.7181,14.046 5.4731,15.979 8.0651,15.979 C8.1061,15.979 8.1461,15.986 8.1831,15.999 L22.9921,15.999 C23.5891,15.999 24.0751,15.513 24.0751,14.917 C24.0751,14.32 23.5891,13.835 22.9921,13.835 L15.4201,13.835 C15.2211,13.835 15.0601,13.673 15.0601,13.474 C15.0601,13.275 15.2211,13.114 15.4201,13.114 L22.9921,13.114 L24.1301,13.114 C24.7281,13.114 25.2131,12.629 25.2131,12.032 C25.2131,11.434 24.7281,10.949 24.1301,10.949 L15.4201,10.949 C15.2211,10.949 15.0601,10.788 15.0601,10.588 C15.0601,10.389 15.2211,10.228 15.4201,10.228 L24.1301,10.228 L25.9171,10.228 C26.5141,10.228 27.0001,9.743 27.0001,9.146 C27.0001,8.858 26.8861,8.587 26.6801,8.381 C26.4761,8.178 26.2161,8.08 25.9191,8.069 L24.1331,8.069 L15.4201,8.069 C15.2211,8.069 15.0601,7.908 15.0601,7.709 C15.0601,7.509 15.2211,7.348 15.4201,7.348 L24.1301,7.348 C24.7271,7.345 25.2131,6.857 25.2131,6.261 C25.2131,5.664 24.7281,5.178 24.1301,5.178 L10.3791,5.178 C10.2211,5.178 10.0811,5.074 10.0351,4.922 C9.9891,4.771 10.0471,4.607 10.1791,4.518 L12.7101,2.828 C13.3481,2.38 13.4701,2.099 13.4701,1.738 C13.4701,1.248 13.1521,0.72 12.4561,0.72 C12.0831,0.72 11.7601,0.82 11.3051,1.076 L7.7291,3.108 Z M7.9451,16.698 C5.0391,16.639 1.9981,14.458 1.9981,10.461 C1.9981,6.995 3.5551,4.683 7.3721,2.483 L10.9511,0.449 C11.5181,0.129 11.9541,0 12.4561,0 C13.5821,0 14.1891,0.895 14.1891,1.738 C14.1891,2.511 13.7611,2.97 13.1171,3.422 L11.5661,4.458 L24.1301,4.458 C25.1251,4.458 25.9331,5.267 25.9331,6.261 C25.9331,6.671 25.7901,7.045 25.5581,7.348 L25.9171,7.348 L25.9281,7.348 C26.4011,7.348 26.8491,7.534 27.1881,7.871 C27.5311,8.212 27.7201,8.665 27.7201,9.146 C27.7201,10.14 26.9111,10.949 25.9171,10.949 L25.5621,10.949 C25.7921,11.252 25.9331,11.624 25.9331,12.032 C25.9331,12.933 25.2671,13.675 24.4021,13.807 C24.6441,14.114 24.7941,14.497 24.7941,14.917 C24.7941,15.911 23.9861,16.719 22.9921,16.719 L8.0651,16.719 C8.0231,16.719 7.9821,16.712 7.9451,16.698 Z M16.8155,25.8336 C16.3415,25.3586 15.6305,25.1846 14.9665,25.3676 C14.7835,26.0326 14.9585,26.7426 15.4315,27.2166 C15.9065,27.6916 16.6195,27.8656 17.2805,27.6826 C17.4635,27.0176 17.2895,26.3076 16.8155,25.8336 Z M14.5555,24.7436 C15.5255,24.3866 16.6135,24.6126 17.3245,25.3236 C18.0345,26.0346 18.2625,27.1206 17.9045,28.0926 L17.8475,28.2486 L17.6915,28.3066 C17.3865,28.4186 17.0695,28.4736 16.7565,28.4736 C16.0745,28.4736 15.4095,28.2126 14.9225,27.7266 C14.2125,27.0166 13.9845,25.9296 14.3425,24.9576 L14.3995,24.8016 L14.5555,24.7436 Z M16.5528,20.4733 C17.2168,20.6583 17.9278,20.4823 18.4018,20.0073 C18.8758,19.5343 19.0508,18.8243 18.8668,18.1593 C18.2028,17.9743 17.4918,18.1503 17.0178,18.6243 C16.5448,19.0983 16.3698,19.8083 16.5528,20.4733 Z M19.4908,17.7483 C19.8488,18.7203 19.6208,19.8073 18.9108,20.5173 C18.4238,21.0033 17.7598,21.2643 17.0768,21.2643 C16.7638,21.2643 16.4478,21.2093 16.1418,21.0973 L15.9868,21.0393 L15.9288,20.8833 C15.5708,19.9113 15.7988,18.8253 16.5098,18.1153 C17.2198,17.4043 18.3078,17.1773 19.2778,17.5353 L19.4338,17.5923 L19.4908,17.7483 Z M12.0548,22.9664 C12.5438,22.4824 12.7458,21.7794 12.5708,21.1314 C12.3958,20.4854 11.8668,19.9794 11.1998,19.8074 C10.7098,20.2924 10.5078,20.9954 10.6828,21.6434 C10.8578,22.2904 11.3878,22.7954 12.0548,22.9664 Z M11.1538,19.0624 C12.1748,19.2354 13.0038,19.9734 13.2658,20.9444 C13.5288,21.9134 13.1848,22.9694 12.3908,23.6334 L12.2638,23.7394 L12.0998,23.7124 C11.0798,23.5394 10.2498,22.8014 9.9878,21.8304 C9.7248,20.8614 10.0688,19.8054 10.8628,19.1404 L10.9908,19.0334 L11.1538,19.0624 Z M30.36,22.0006 C30.559,22.0006 30.72,22.1616 30.72,22.3606 C30.72,22.5606 30.559,22.7216 30.36,22.7216 L23.713,22.7216 C23.523,27.1646 19.849,30.7216 15.36,30.7216 C10.871,30.7216 7.197,27.1646 7.007,22.7216 L0.36,22.7216 C0.161,22.7216 0,22.5606 0,22.3606 C0,22.1616 0.161,22.0006 0.36,22.0006 L7.36,22.0006 C7.559,22.0006 7.72,22.1616 7.72,22.3606 C7.72,26.5736 11.147,30.0006 15.36,30.0006 C19.573,30.0006 23,26.5736 23,22.3606 C23,22.1616 23.161,22.0006 23.36,22.0006 L30.36,22.0006 Z" id="Fill-1" fill="#FFFFFF"></path>
    </g>
</svg>