<?xml version="1.0" encoding="UTF-8"?>
<svg width="74px" height="69px" viewBox="0 0 74 69" version="1.1" xmlns="http://www.w3.org/2000/svg" xmlns:xlink="http://www.w3.org/1999/xlink">
    <!-- Generator: Sketch 56.3 (81716) - https://sketch.com -->
    <title>Group 3</title>
    <desc>Created with Sketch.</desc>
    <defs>
        <path d="M0,46.472775 L0,0.8665 C0,0.38645 0.38645305,0 0.8641185,0 L60.87235,0 C61.35,0 61.7365,0.38645 61.7365,0.8665 L61.7365,26.403615 L72.874,26.403615 C73.35165,26.403615 73.7381,26.79007 73.7381,27.270135 L73.7381,65.67541 C73.7381,66.1530755 73.35165,66.5395285 72.874,66.5395285 L51.27105,66.5395285 C50.79335,66.5395285 50.4069,66.1530755 50.4069,65.67541 L50.4069,47.33689 L44.07005,47.33689 L44.07005,45.606255 L60.00825,45.606255 L60.00825,40.135905 L44.07029,40.135905 L44.07029,38.405265 L60.00825,38.405265 L60.00825,1.73065 L1.7282375,1.73065 L1.7282375,38.405265 L15.266335,38.405265 L15.266335,40.135905 L1.7282375,40.135905 L1.7282375,45.606255 L15.266095,45.606255 L15.266095,47.33689 L0.8641185,47.33689 C0.38645305,47.33689 0,46.95044 0,46.472775 Z M37.180865,26.403615 L33.85761,23.08036 L35.079375,21.856195 L40.49212,27.268935 L35.079375,32.68168 L33.85761,31.45751 L37.180865,28.134255 L29.668315,28.134255 L29.668315,26.403615 L37.180865,26.403615 Z M7.753305,26.403615 L15.266335,26.403615 L15.266335,28.134255 L7.753305,28.134255 L11.07656,31.45751 L9.854795,32.68168 L4.44205,27.268935 L9.854795,21.856195 L11.07656,23.08036 L7.753305,26.403615 Z M52.13515,57.6079 L72.0099,57.6079 L72.0099,28.134255 L61.7365,28.134255 L61.7365,46.472775 C61.7365,46.95044 61.35,47.33689 60.87235,47.33689 L52.13515,47.33689 L52.13515,57.6079 Z M52.13515,59.33854 L52.13515,64.808891 L72.0099,64.808891 L72.0099,59.33854 L52.13515,59.33854 Z M22.462285,30.534585 C21.61737,30.534585 20.930875,31.264285 20.930875,32.15961 L20.930875,58.09517 C20.930875,63.12146 24.853015,67.2092205 29.672875,67.2092205 C34.487935,67.2092205 38.405275,63.12146 38.405275,58.09517 L38.405275,45.99751 C38.405275,45.102185 37.71878,44.377285 36.873865,44.377285 C36.028945,44.377285 35.340055,45.102185 35.340055,45.99751 L35.340055,48.873105 C35.340055,49.34837 34.956,49.73482 34.478335,49.73722 L34.475935,49.73722 C34.00067,49.73722 33.614215,49.35077 33.614215,48.875505 L33.602215,44.228465 C33.602215,43.33074 32.91332,42.60344 32.068405,42.60344 C31.218685,42.60344 30.52739,43.33074 30.52739,44.226065 L30.536995,48.8707 C30.539395,49.34837 30.15294,49.73482 29.675275,49.73722 L29.672875,49.73722 C29.19761,49.73722 28.811155,49.35077 28.811155,48.875505 L28.799155,43.16752 C28.799155,42.269795 28.11266,41.540095 27.265345,41.540095 C26.42043,41.540095 25.733935,42.269795 25.733935,43.16512 L25.733935,48.873105 C25.733935,49.35077 25.34748,49.73722 24.869815,49.73722 C24.39215,49.73722 24.005695,49.35077 24.005695,48.873105 L23.993695,32.15961 C23.993695,31.264285 23.3072,30.534585 22.462285,30.534585 Z M29.672875,68.939858 C23.90008,68.939858 19.202635,64.07679 19.202635,58.09517 L19.202635,32.15961 C19.202635,30.308955 20.664435,28.803945 22.462285,28.803945 C24.26013,28.803945 25.72193,30.308955 25.72193,32.15961 L25.726735,40.207915 C26.185195,39.95588 26.71087,39.80946 27.265345,39.80946 C28.49191,39.80946 29.56006,40.507955 30.116935,41.540095 C30.66421,41.12244 31.338705,40.875205 32.068405,40.875205 C33.5014,40.875205 34.718365,41.828135 35.15763,43.150715 C35.656895,42.831475 36.244975,42.64665 36.873865,42.64665 C38.67171,42.64665 40.13351,44.151655 40.13351,45.99751 L40.13351,58.09517 C40.13351,64.07679 35.440865,68.939858 29.672875,68.939858 Z" id="path-1"></path>
    </defs>
    <g id="Page-1" stroke="none" stroke-width="1" fill="none" fill-rule="evenodd">
        <g id="Artboard" transform="translate(-626.000000, -639.000000)">
            <g id="Group-3" transform="translate(626.000000, 639.000000)">
                <mask id="mask-2" fill="white">
                    <use xlink:href="#path-1"></use>
                </mask>
                <g id="Clip-2"></g>
                <polygon id="Fill-1" fill="#FFFFFF" mask="url(#mask-2)" points="-12.00165 -12.00165 85.73975 -12.00165 85.73975 80.941505 -12.00165 80.941505"></polygon>
            </g>
        </g>
    </g>
</svg>